<svg width="62" height="63" viewBox="0 0 62 63" fill="none" xmlns="http://www.w3.org/2000/svg">
<g clip-path="url(#clip0)">
<circle cx="37.5" cy="24.5" r="5.5" fill="white"/>
<path fill-rule="evenodd" clip-rule="evenodd" d="M20.7462 48.1169C21.1367 48.5074 21.1367 49.1406 20.7462 49.5311L16.5035 53.7737C16.113 54.1643 15.4798 54.1643 15.0893 53.7737C14.6988 53.3832 14.6988 52.75 15.0893 52.3595L19.3319 48.1169C19.7225 47.7264 20.3556 47.7264 20.7462 48.1169ZM17.2106 40.3387C17.6011 40.7292 17.6011 41.3624 17.2106 41.7529L12.968 45.9956C12.5775 46.3861 11.9443 46.3861 11.5538 45.9956C11.1632 45.605 11.1632 44.9719 11.5538 44.5813L15.7964 40.3387C16.1869 39.9482 16.8201 39.9482 17.2106 40.3387ZM22.1604 41.0458C22.5509 41.4363 22.5509 42.0695 22.1604 42.46L17.9177 46.7027C17.5272 47.0932 16.894 47.0932 16.5035 46.7027C16.113 46.3121 16.113 45.679 16.5035 45.2884L20.7462 41.0458C21.1367 40.6553 21.7698 40.6553 22.1604 41.0458ZM48.5491 11.5057C49.6482 11.6155 50.4503 12.5954 50.3405 13.6945L49.5722 21.3902C49.1081 26.0388 47.0313 30.3782 43.7021 33.6556L39.6626 37.6324C38.224 39.0486 37.5442 41.0642 37.8313 43.0624L38.0031 44.2586C38.1823 45.506 37.7632 46.7648 36.8722 47.6558L33.4064 51.1216C33.0506 51.4774 32.5738 51.686 32.071 51.7059C30.9673 51.7494 30.0373 50.8899 29.9938 49.7862L29.983 49.5133C29.861 46.4179 29.0156 43.394 27.5145 40.6841L27.381 40.4431C25.9783 37.9108 23.8704 35.8402 21.3134 34.483C18.7294 33.1114 15.8886 32.292 12.9711 32.0768L11.8466 31.9938C11.3683 31.9585 10.9187 31.7525 10.5795 31.4134C9.7985 30.6324 9.7985 29.3661 10.5795 28.585L14.2425 24.9221C15.1041 24.0605 16.3114 23.6386 17.5221 23.776L18.7897 23.9199C20.8014 24.1483 22.8075 23.4473 24.2391 22.0157L28.213 18.0418C31.4784 14.7764 35.7731 12.7417 40.3681 12.2829L48.1517 11.5057C48.2839 11.4926 48.417 11.4926 48.5491 11.5057ZM40.3526 21.4937C38.787 19.928 36.2543 19.9224 34.6956 21.4811C33.1369 23.0398 33.1425 25.5725 34.7081 27.1382C36.2738 28.7038 38.8065 28.7094 40.3652 27.1507C41.9239 25.592 41.9183 23.0593 40.3526 21.4937Z" fill="#D9113A"/>
<path opacity="0.3" fill-rule="evenodd" clip-rule="evenodd" d="M48.5484 11.5058C49.6475 11.6155 50.4496 12.5955 50.3398 13.6946L49.5715 21.3902C49.3077 24.032 48.5231 26.5739 47.2838 28.8779C45.0397 28.552 42.849 27.7778 40.8558 26.5548C41.8996 25.0007 41.7305 22.8722 40.3519 21.4937C38.9691 20.1109 36.8318 19.945 35.2776 20.9991C34.0379 19.0021 33.2524 16.8031 32.9199 14.5501C35.2136 13.3219 37.7415 12.5451 40.3674 12.2829L48.151 11.5058C48.2832 11.4926 48.4163 11.4926 48.5484 11.5058Z" fill="white"/>
<path opacity="0.3" fill-rule="evenodd" clip-rule="evenodd" d="M11.7173 31.9843L12.9704 32.0768C15.8879 32.292 18.7287 33.1114 21.3126 34.4829C23.8697 35.8402 25.9776 37.9107 27.3803 40.4431L27.5138 40.6841C29.0149 43.394 29.8603 46.4179 29.9823 49.5133L29.993 49.7862C30.0365 50.8899 30.9665 51.7493 32.0703 51.7058C32.573 51.686 33.0499 51.4774 33.4057 51.1216L34.0732 50.4541C35.8522 48.6751 36.3324 45.9751 35.2759 43.6918C33.4513 39.7487 31.1124 36.3505 28.2592 33.4972C25.288 30.5261 21.598 28.2777 17.1891 26.752C15.0181 26.0008 12.6088 26.5551 10.9843 28.1795L10.4877 28.6761C9.72969 29.4341 9.72969 30.6631 10.4877 31.4211C10.8168 31.7502 11.2532 31.95 11.7173 31.9843Z" fill="black"/>
</g>
<defs>
<clipPath id="clip0">
<rect x="38.4238" y="0.740723" width="33" height="54" transform="rotate(45 38.4238 0.740723)" fill="white"/>
</clipPath>
</defs>
</svg>
